<?xml version="1.0" encoding="UTF-8" standalone="no"?>
<svg
   xmlns:dc="http://purl.org/dc/elements/1.1/"
   xmlns:cc="http://creativecommons.org/ns#"
   xmlns:rdf="http://www.w3.org/1999/02/22-rdf-syntax-ns#"
   xmlns:svg="http://www.w3.org/2000/svg"
   xmlns="http://www.w3.org/2000/svg"
   id="svg4470"
   version="1.1"
   viewBox="0 0 210 297"
   height="297mm"
   width="210mm">
  <defs
     id="defs4464" />
  <metadata
     id="metadata4467">
    <rdf:RDF>
      <cc:Work
         rdf:about="">
        <dc:format>image/svg+xml</dc:format>
        <dc:type
           rdf:resource="http://purl.org/dc/dcmitype/StillImage" />
        <dc:title></dc:title>
      </cc:Work>
    </rdf:RDF>
  </metadata>
  <g
     id="layer1">
    <g
       id="g4443"
       transform="matrix(0.26458333,0,0,0.26458333,-201.48401,62.269681)">
      <g
         id="g323">
        <path
           id="path277"
           d="m 907.433,442.689 c 1.529,-4.465 2.924,-8.978 4.436,-13.448 0.349,-1.031 0.584,-2.621 1.35,-3.428 0.832,-0.879 2.415,-0.504 2.612,0.731 0.169,1.046 -0.629,2.444 -0.96,3.42 -0.47,1.39 -0.933,2.78 -1.391,4.173 -1.488,4.533 -2.791,9.215 -4.645,13.618 -0.704,1.67 -2.204,4.351 -4.413,3.129 -1.922,-1.062 -2.68,-4.142 -3.344,-6.053 -1.39,-3.991 -2.664,-8.022 -4.004,-12.031 -0.381,-1.142 -0.766,-2.282 -1.153,-3.421 -0.29,-0.851 -1.057,-2.18 -0.721,-3.078 0.319,-0.85 1.332,-1.231 2.139,-0.811 1.002,0.515 1.221,2.149 1.555,3.12 1.5,4.389 2.925,8.802 4.394,13.201 0.542,1.623 1.083,3.254 1.749,4.832 0.066,0.157 0.28,0.917 0.534,0.776 0.283,-0.156 0.462,-0.9 0.58,-1.193 0.467,-1.162 0.878,-2.349 1.282,-3.537 0.25,-0.731 -0.669,1.972 0,0 z" />
        <path
           id="path279"
           d="m 936.482,450.936 c -1.056,-0.012 -2.277,-0.048 -3.227,-0.571 -0.891,-0.49 -1.201,-1.562 -1.325,-2.503 -0.105,-0.789 -0.08,-1.595 -0.08,-2.391 0,-2.709 0,-5.417 0,-8.125 0,-2.918 0,-5.835 0,-8.754 0,-0.604 0,-1.205 0,-1.809 0,-2.226 3.004,-2.186 3.004,0.035 0,4.904 0,9.811 0,14.713 0,1.668 0,3.337 0,5.005 0,0.746 -0.105,1.436 0.749,1.525 0.706,0.073 1.425,-0.031 2.126,0.058 1.148,0.146 1.797,1.528 0.896,2.395 -0.577,0.536 -1.417,0.422 -2.143,0.422 z" />
        <path
           id="path281"
           d="m 943.896,441.969 c 0,1.916 0.13,4.756 2.087,5.779 1.748,0.916 4.749,0.763 5.662,-1.233 0.703,-1.538 0.684,-3.35 0.684,-5.009 0,-1.446 0,-2.894 0,-4.341 0,-0.974 -0.245,-2.422 0.158,-3.351 0.5,-1.147 2.189,-1.147 2.688,0 0.198,0.455 0.158,0.968 0.158,1.453 0,2.708 0.122,5.449 -0.04,8.155 -0.125,2.065 -0.524,4.458 -2.088,5.965 -1.809,1.727 -4.711,1.989 -7.054,1.44 -4.407,-1.036 -5.276,-5.464 -5.276,-9.383 0,-1.47 0,-2.94 0,-4.412 0,-0.955 -0.275,-2.601 0.29,-3.448 0.714,-1.07 2.318,-0.703 2.654,0.483 0.119,0.421 0.076,0.906 0.076,1.339 0,1.514 0,3.029 0,4.545 10e-4,0.672 10e-4,1.346 10e-4,2.018 z" />
        <path
           id="path283"
           d="m 1004.418,429.866 c -1.785,4.668 -3.577,9.32 -5.274,14.026 -0.591,1.638 -1.169,3.292 -1.94,4.854 -0.446,0.9 -1.083,2.042 -2.191,2.189 -1.248,0.166 -2.051,-1.014 -2.55,-1.979 -1.975,-3.832 -3.12,-8.183 -4.603,-12.213 -0.792,-2.157 -1.58,-4.341 -2.564,-6.42 -0.504,-1.066 -0.511,0.304 -0.529,0.812 -0.041,1.084 -0.04,2.171 -0.04,3.256 0,4.871 0,9.741 0,14.61 0,0.233 0.011,0.476 -0.02,0.706 -0.146,1.145 -1.448,1.931 -2.437,1.151 -0.786,-0.622 -0.643,-1.687 -0.643,-2.574 0,-2.947 0,-5.895 0,-8.842 0,-1.687 0,-3.373 0,-5.061 0,-2.192 -0.032,-4.501 0.507,-6.639 0.431,-1.708 1.938,-3.224 3.697,-1.959 1.604,1.152 2.378,3.478 3.105,5.232 0.894,2.156 1.69,4.354 2.471,6.554 1.094,3.074 2.319,6.117 3.379,9.2 0.4,-1.279 0.968,-2.526 1.425,-3.788 0.907,-2.504 1.776,-5.022 2.692,-7.523 0.803,-2.19 1.615,-4.39 2.618,-6.499 0.755,-1.586 2.479,-4.82 4.702,-3.267 1.807,1.264 1.605,4.673 1.653,6.595 0.025,1.058 0.022,2.119 0.022,3.178 0,2.953 0,5.906 0,8.859 0,1.276 0,2.55 0,3.826 0,0.728 0.128,1.695 -0.291,2.326 -0.665,1.005 -2.141,0.854 -2.628,-0.231 -0.159,-0.353 -0.163,-0.726 -0.163,-1.103 0,-1.001 0,-2.001 0,-3.004 0,-3.061 0,-6.122 0,-9.184 0,-0.834 0,-1.668 0,-2.502 0,-0.721 0,-1.442 -0.018,-2.163 -0.01,-0.392 0.15,-2.303 -0.258,-2.562 -0.071,0.007 -0.113,0.051 -0.122,0.139 -0.109,0.286 0.109,-0.287 0,0 z" />
        <path
           id="path285"
           d="m 1027.327,442.032 c 0,-2.295 0.311,-4.845 1.779,-6.706 1.515,-1.921 4,-2.512 6.347,-2.365 2.252,0.142 4.317,1.148 5.319,3.242 0.877,1.83 1.01,3.947 1.013,5.943 0.01,2.431 0.012,4.861 0.016,7.291 0,0.995 -0.743,1.925 -1.818,1.704 -0.878,-0.18 -1.201,-1.044 -1.201,-1.839 0,-1.291 0,-2.581 0,-3.873 0,-1.14 0,-2.277 0,-3.418 0,-1.683 0.037,-4.378 -1.449,-5.553 -1.595,-1.265 -4.87,-0.931 -6,0.809 -0.954,1.464 -0.985,3.398 -0.985,5.085 0,1.396 0,2.791 0,4.188 0,1.051 0.116,2.175 -0.019,3.22 -0.155,1.214 -1.647,1.94 -2.548,0.941 -0.444,-0.459 -0.453,-1.058 -0.453,-1.648 0,-1.43 0,-2.859 0,-4.289 -10e-4,-0.911 -10e-4,-1.822 -10e-4,-2.732 z" />
        <path
           id="path287"
           d="m 921.936,432.912 c 4.705,0.046 7.306,3.633 7.306,8.103 0,2.691 0,5.382 0,8.072 0,0.483 -0.002,0.967 -0.289,1.386 -0.824,1.199 -2.537,0.622 -2.712,-0.741 -0.158,-1.231 -0.019,-2.558 -0.019,-3.796 0,-0.396 0.053,-0.833 0,-1.226 0,-1.229 -1.758,-1.898 -2.722,-2.136 -2.132,-0.522 -5.634,0.035 -5.634,2.887 0,1.722 0.223,2.403 1.958,2.65 1.199,0.171 4.715,0.218 6.362,-0.782 1.174,-0.712 2.077,1.462 0.029,2.499 -1.501,0.76 -1.501,0.76 -3.411,1.048 -1.705,0.257 -3.69,0.205 -5.231,-0.638 -3.414,-1.867 -3.462,-6.611 -0.704,-9.042 1.358,-1.195 3.144,-1.665 4.925,-1.665 1.47,0 3.334,0.11 4.444,1.22 0,-1.938 -0.763,-4.221 -2.81,-4.804 -1.139,-0.325 -3.7,-1.038 -5.632,1.998 -0.646,1.015 -2.409,0.625 -2.639,-0.616 -0.179,-0.962 0.34,-1.561 0.958,-2.221 1.495,-1.598 3.694,-2.165 5.821,-2.196 z" />
        <path
           id="path289"
           d="m 1017.363,432.912 c 4.705,0.046 7.306,3.633 7.306,8.103 0,2.691 0,5.382 0,8.072 0,0.483 0,0.967 -0.289,1.386 -0.824,1.199 -2.537,0.622 -2.712,-0.741 -0.158,-1.231 -0.019,-2.558 -0.019,-3.796 0,-0.396 0.053,-0.833 0,-1.226 0,-1.229 -1.758,-1.898 -2.722,-2.136 -2.132,-0.522 -5.634,0.035 -5.634,2.887 0,1.722 0.223,2.403 1.958,2.65 1.199,0.171 4.715,0.218 6.362,-0.782 1.174,-0.712 2.077,1.462 0.029,2.499 -1.501,0.76 -1.501,0.76 -3.411,1.048 -1.705,0.257 -3.69,0.205 -5.231,-0.638 -3.414,-1.867 -3.462,-6.611 -0.704,-9.042 1.358,-1.195 3.144,-1.665 4.925,-1.665 1.47,0 3.334,0.11 4.444,1.22 0,-1.938 -0.763,-4.221 -2.81,-4.804 -1.139,-0.325 -3.7,-1.038 -5.632,1.998 -0.646,1.015 -2.409,0.625 -2.639,-0.616 -0.179,-0.962 0.34,-1.561 0.958,-2.221 1.496,-1.598 3.694,-2.165 5.821,-2.196 z" />
        <path
           id="path291"
           d="m 1074.756,447.058 c 0,-3.31 -0.264,-6.619 -0.264,-9.93 0,-0.739 0.035,-2.174 -0.641,-2.768 -0.541,-0.476 -6.034,-3.056 -10.398,0.249 -2.703,2.047 -2.47,5.599 -2.186,8.007 0.284,2.393 1.388,4.499 3.75,5.401 1.402,0.536 2.939,0.53 4.419,0.41 0.846,-0.068 1.873,-0.208 2.55,-0.776 0,2.43 0.184,5.501 -2.556,6.557 -2.755,1.062 -6.012,-0.086 -6.236,-3.683 0,0 -1.29,-2.094 -2.933,-0.16 -0.361,0.426 -0.121,1.551 -0.121,1.551 1.192,3.92 3.693,5.375 7.183,5.427 3.051,0.016 5.819,-1.206 6.971,-4.21 0.74,-1.929 0.462,-4.046 0.462,-6.075 z m -2.74,-3.62 c -0.158,1.183 -1.644,1.665 -2.677,1.96 -1.199,0.34 -2.74,0.319 -3.805,-0.413 -0.773,-0.535 -1.066,-1.484 -1.225,-2.373 -0.34,-1.927 -0.422,-5.23 1.719,-6.214 1.262,-0.579 5.046,-0.397 5.43,0.187 1.047,1.593 0.651,6.154 0.558,6.853 z" />
        <path
           id="path293"
           d="M 1075.015,434.865" />
        <path
           id="path295"
           d="m 1108.085,434.646 c 1.825,-1.685 4.644,-2.029 6.998,-1.535 2.188,0.459 3.728,1.884 4.428,3.983 1.008,3.02 0.655,6.536 0.655,9.685 0,0.998 0.201,2.257 -0.072,3.236 -0.337,1.206 -1.935,1.558 -2.657,0.48 -0.314,-0.469 -0.29,-1.013 -0.29,-1.546 0,-2.568 0.066,-5.146 -0.011,-7.713 -0.056,-1.827 -0.199,-4.521 -2.26,-5.232 -2.047,-0.708 -4.662,-0.163 -5.531,1.966 -1.13,2.764 -0.633,6.502 -0.633,9.442 0,1.062 0.295,2.755 -0.677,3.479 -1.106,0.822 -2.343,-0.271 -2.343,-1.44 -0.021,-0.34 0,-0.688 0,-1.026 0,-2.922 0.236,-5.99 -0.154,-8.893 -0.291,-2.163 -1.139,-3.667 -3.506,-3.767 -2.467,-0.105 -4.017,1.043 -4.518,3.436 -0.598,2.845 -0.256,6.047 -0.256,8.935 0,1.203 0.086,3.375 -1.805,2.99 -1.489,-0.302 -1.201,-2.195 -1.201,-3.315 0,-3.014 -0.32,-6.324 0.344,-9.285 0.592,-2.63 2.229,-4.73 4.934,-5.366 1.506,-0.353 3.193,-0.343 4.682,0.097 0.971,0.288 2.716,1.104 3.107,2.142 0.163,-0.289 0.53,-0.538 0.766,-0.753 1.242,-1.148 -0.469,0.427 0,0 z" />
        <path
           id="path297"
           d="m 1139.343,442.032 c 0,-2.295 0.311,-4.845 1.779,-6.706 1.516,-1.921 4.001,-2.512 6.348,-2.365 2.252,0.142 4.316,1.148 5.32,3.242 0.876,1.83 1.008,3.947 1.012,5.943 0.01,2.431 0.011,4.861 0.016,7.291 0,0.995 -0.741,1.925 -1.819,1.704 -0.877,-0.18 -1.2,-1.044 -1.2,-1.839 0,-1.291 0,-2.581 0,-3.873 0,-1.14 0,-2.277 0,-3.418 0,-1.683 0.036,-4.376 -1.449,-5.553 -1.594,-1.265 -4.871,-0.93 -6.001,0.809 -0.953,1.465 -0.985,3.398 -0.985,5.085 0,1.396 0,2.791 0,4.188 0,1.051 0.116,2.172 -0.018,3.22 -0.154,1.214 -1.649,1.94 -2.549,0.941 -0.443,-0.459 -0.453,-1.058 -0.453,-1.648 0,-1.43 0,-2.859 0,-4.289 -10e-4,-0.911 -10e-4,-1.822 -10e-4,-2.732 z" />
        <path
           id="path299"
           d="m 1161.245,433.223 c 1.225,0 2.448,0 3.673,0 0.436,0 0.896,-0.039 1.33,0.017 1.253,0.159 1.847,1.787 0.705,2.547 -0.945,0.622 -2.88,0.269 -3.937,0.269 -0.559,0 -1.118,0 -1.678,0 -0.189,0 -0.094,0.399 -0.094,0.552 0,2.652 0,5.304 0,7.956 0,2.032 0.605,3.928 2.979,3.764 0.508,-0.033 1.079,-0.153 1.434,-0.551 0.339,-0.372 0.804,-0.626 1.315,-0.626 1.182,0 1.818,1.225 1.191,2.188 -1.311,2.01 -4.597,2.231 -6.628,1.428 -2.453,-0.97 -3.312,-3.618 -3.312,-6.058 -0.033,-2.495 0,-4.989 0,-7.484 0,-0.371 0,-0.744 0,-1.115 0,-0.12 -1.233,-0.054 -1.42,-0.054 -1.025,0 -1.988,-0.881 -1.525,-1.96 0.407,-0.952 1.461,-0.872 2.316,-0.872 0.523,0 0.629,0.14 0.629,-0.357 0,-0.663 0,-1.325 0.01,-1.988 0,-1.327 0.01,-2.653 0.01,-3.979 0,-1.327 1.414,-2.563 2.565,-1.373 0.575,0.615 0.438,1.593 0.438,2.371 0,1.773 0,3.549 0,5.325 z" />
        <path
           id="path301"
           d="m 896.354,463.517 c -1.131,0 -2.276,-1.177 -1.441,-2.271 0.397,-0.522 1.009,-0.64 1.624,-0.64 0.995,0 1.99,0 2.984,0 3.014,0 6.027,0 9.039,0 0.816,0 1.946,-0.162 2.598,0.422 1.012,0.879 0.241,2.327 -0.938,2.472 -0.468,0.057 -0.959,0.017 -1.427,0.017 -1.34,0 -2.678,0 -4.015,0 -0.187,0 -0.084,0.953 -0.084,1.117 0,5.72 0,11.441 0,17.162 0,0.805 0,1.609 0,2.414 0,1.365 -1.396,2.863 -2.645,1.526 -0.554,-0.591 -0.454,-1.453 -0.454,-2.2 0,-1.082 0,-2.162 0,-3.243 0,-4.66 0,-9.317 0,-13.977 0,-0.195 0.044,-2.8 -0.037,-2.8 -1.735,10e-4 -3.469,10e-4 -5.204,10e-4 z" />
        <path
           id="path303"
           d="m 917.349,486.222 c -2.236,0 -4.477,-0.725 -5.829,-2.596 -1.341,-1.854 -1.619,-4.305 -1.619,-6.526 0,-2.23 0.288,-4.684 1.641,-6.537 1.352,-1.856 3.585,-2.57 5.808,-2.57 2.223,0 4.456,0.715 5.809,2.57 1.351,1.854 1.64,4.307 1.64,6.537 0,2.222 -0.279,4.672 -1.618,6.526 -1.354,1.871 -3.597,2.596 -5.832,2.596 z m 0,-15.397 c -1.4,0 -2.813,0.391 -3.551,1.668 -0.782,1.358 -0.877,3.078 -0.877,4.606 0,1.471 0.094,3.085 0.778,4.421 0.718,1.404 2.144,1.869 3.649,1.869 1.412,0 2.81,-0.398 3.55,-1.684 0.783,-1.359 0.879,-3.078 0.879,-4.606 0,-1.472 -0.095,-3.086 -0.778,-4.422 -0.716,-1.397 -2.153,-1.852 -3.65,-1.852 z" />
        <path
           id="path305"
           d="m 934.229,486.222 c -2.236,0 -4.478,-0.725 -5.829,-2.596 -1.34,-1.854 -1.619,-4.305 -1.619,-6.526 0,-2.23 0.289,-4.684 1.641,-6.537 1.353,-1.856 3.586,-2.57 5.808,-2.57 2.223,0 4.456,0.715 5.81,2.57 1.352,1.854 1.64,4.307 1.64,6.537 0,2.222 -0.279,4.672 -1.618,6.526 -1.356,1.871 -3.598,2.596 -5.833,2.596 z m 0,-15.397 c -1.4,0 -2.813,0.391 -3.549,1.668 -0.785,1.358 -0.88,3.078 -0.88,4.606 0,1.471 0.095,3.085 0.778,4.421 0.719,1.404 2.146,1.869 3.65,1.869 1.413,0 2.81,-0.398 3.551,-1.684 0.782,-1.359 0.878,-3.078 0.878,-4.606 0,-1.472 -0.095,-3.086 -0.777,-4.422 -0.716,-1.397 -2.154,-1.852 -3.651,-1.852 z" />
        <path
           id="path307"
           d="m 948.606,485.987 c -1.057,-0.013 -2.279,-0.048 -3.229,-0.572 -0.889,-0.49 -1.2,-1.562 -1.325,-2.502 -0.104,-0.79 -0.079,-1.594 -0.079,-2.392 0,-2.708 0,-5.417 0,-8.124 0,-2.918 0,-5.836 0,-8.754 0,-0.604 0,-1.206 0,-1.81 0,-2.225 3.005,-2.184 3.005,0.035 0,4.903 0,9.81 0,14.715 0,1.668 0,3.336 0,5.004 0,0.744 -0.106,1.436 0.749,1.524 0.705,0.073 1.425,-0.028 2.125,0.059 1.148,0.146 1.797,1.528 0.896,2.394 -0.576,0.537 -1.417,0.423 -2.142,0.423 z" />
        <path
           id="path309"
           d="m 959.946,483.249 c 1.15,-0.267 2.883,-1.475 2.588,-2.693 -0.345,-1.426 -2.136,-1.82 -3.375,-1.974 -4.375,-0.541 -6.578,-1.478 -7.245,-3.894 -0.675,-2.443 0.35,-5.869 3.78,-6.926 4.501,-1.387 8.207,0.229 9.541,2.761 0.481,0.913 0.459,2.008 -0.716,2.463 -0.548,0.213 -1.201,0.095 -1.631,-0.306 -0.526,-0.507 -0.397,-0.651 -0.572,-1.283 -0.264,-0.953 -4.062,-1.836 -6.336,-0.64 -1.754,0.923 -1.359,2.534 -1.238,2.923 1.089,3.48 6.292,0.458 9.234,3.057 2.1,1.854 1.884,5.362 0.049,7.396 -1.417,1.571 -3.471,2.089 -5.518,2.089 0.103,-0.004 0.289,-0.015 0.421,-0.016 -1.634,-0.024 -3.314,-0.341 -4.698,-1.255 -1.028,-0.676 -2.664,-2.25 -2.411,-3.622 0.149,-0.809 0.935,-1.277 1.723,-1.139 0.962,0.172 1.025,0.992 1.58,1.602 1.189,1.306 3.113,1.844 4.824,1.457 0.855,-0.199 -0.323,0.073 0,0 z" />
        <path
           id="path311"
           d="m 989.028,468.273 c 1.223,0 2.448,0 3.672,0 0.436,0 0.896,-0.038 1.33,0.017 1.254,0.16 1.848,1.788 0.704,2.546 -0.943,0.625 -2.88,0.271 -3.935,0.271 -0.56,0 -1.119,0 -1.678,0 -0.191,0 -0.094,0.398 -0.094,0.552 0,2.651 0,5.303 0,7.956 0,2.031 0.604,3.928 2.979,3.764 0.508,-0.034 1.08,-0.153 1.435,-0.553 0.337,-0.371 0.804,-0.625 1.314,-0.625 1.181,0 1.819,1.226 1.191,2.188 -1.311,2.011 -4.597,2.231 -6.629,1.429 -2.452,-0.971 -3.31,-3.617 -3.31,-6.058 -0.034,-2.494 0,-4.989 0,-7.484 0,-0.372 0,-0.744 0,-1.115 0,-0.12 -1.234,-0.054 -1.422,-0.054 -1.024,0 -1.986,-0.882 -1.524,-1.961 0.408,-0.951 1.461,-0.872 2.317,-0.872 0.522,0 0.629,0.14 0.63,-0.356 10e-4,-0.664 0.003,-1.326 0.004,-1.988 0.003,-1.328 0.007,-2.654 0.011,-3.979 0.002,-1.327 1.414,-2.564 2.566,-1.374 0.574,0.616 0.438,1.593 0.438,2.372 10e-4,1.774 10e-4,3.55 10e-4,5.324 z" />
        <path
           id="path313"
           d="m 965.033,451.155 c -2.387,-0.013 -4.724,-0.881 -6.023,-2.975 -1.301,-2.094 -1.474,-4.786 -1.354,-7.187 0.11,-2.179 0.634,-4.855 2.225,-6.464 1.967,-1.992 4.97,-2.081 6.843,-1.764 2.409,0.408 4.595,2.386 5.169,4.844 0.577,2.465 0.713,4.499 -0.817,6.214 -1.041,1.166 -5.808,0.868 -7.768,0.868 -0.725,0 -3.675,0.3 -3.553,-0.845 0.139,-1.295 -0.287,-2.157 0.841,-2.149 1.44,0.008 2.686,0.219 8.412,-0.088 1.07,-0.058 0.558,-4.513 -1.686,-5.672 -1.787,-0.926 -4.682,-0.65 -5.762,1.21 -1.123,1.936 -1.093,5.031 -0.773,7.165 0.314,2.107 1.33,3.963 3.607,4.195 1.097,0.11 2.314,0.1 3.301,-0.414 0.482,-0.252 1.241,-0.767 1.607,-1.168 0.353,-0.388 1.248,-0.546 2.022,0.306 0.833,0.916 0.601,1.258 -0.018,1.917 -1.503,1.607 -4.133,1.991 -6.273,2.007 z" />
        <path
           id="path315"
           d="m 1084.733,451.32 c -2.387,-0.013 -4.724,-0.881 -6.023,-2.975 -1.301,-2.094 -1.474,-4.786 -1.354,-7.187 0.11,-2.179 0.634,-4.855 2.225,-6.464 1.967,-1.992 4.97,-2.081 6.843,-1.764 2.409,0.408 4.595,2.386 5.169,4.844 0.577,2.465 0.713,4.499 -0.817,6.214 -1.041,1.166 -5.808,0.868 -7.768,0.868 -0.725,0 -3.675,0.3 -3.553,-0.845 0.139,-1.295 -0.287,-2.157 0.841,-2.149 1.44,0.008 2.686,0.219 8.412,-0.088 1.07,-0.058 0.558,-4.513 -1.686,-5.672 -1.787,-0.926 -4.682,-0.65 -5.762,1.21 -1.123,1.936 -1.093,5.031 -0.773,7.165 0.314,2.107 1.33,3.963 3.607,4.195 1.097,0.11 2.314,0.1 3.301,-0.414 0.482,-0.252 1.241,-0.767 1.607,-1.168 0.353,-0.388 1.248,-0.546 2.022,0.306 0.833,0.916 0.601,1.258 -0.018,1.917 -1.503,1.607 -4.133,1.991 -6.273,2.007 z" />
        <path
           id="path317"
           d="m 1129.823,451.295 c -2.387,-0.013 -4.724,-0.881 -6.023,-2.975 -1.301,-2.094 -1.474,-4.786 -1.354,-7.187 0.11,-2.179 0.634,-4.855 2.225,-6.464 1.967,-1.992 4.97,-2.081 6.843,-1.764 2.409,0.408 4.595,2.386 5.169,4.844 0.577,2.465 0.713,4.499 -0.817,6.214 -1.041,1.166 -5.808,0.868 -7.768,0.868 -0.725,0 -3.675,0.3 -3.553,-0.845 0.139,-1.295 -0.287,-2.157 0.841,-2.149 1.44,0.008 2.686,0.219 8.412,-0.088 1.07,-0.058 0.558,-4.513 -1.686,-5.672 -1.787,-0.926 -4.682,-0.65 -5.762,1.21 -1.123,1.936 -1.093,5.031 -0.773,7.165 0.314,2.107 1.33,3.963 3.607,4.195 1.097,0.11 2.314,0.1 3.301,-0.414 0.482,-0.252 1.241,-0.767 1.607,-1.168 0.353,-0.388 1.248,-0.546 2.022,0.306 0.833,0.916 0.601,1.258 -0.018,1.917 -1.503,1.607 -4.133,1.99 -6.273,2.007 z" />
        <path
           id="path319"
           d="m 974.69,486.001 c -2.387,-0.013 -4.724,-0.881 -6.023,-2.975 -1.301,-2.094 -1.474,-4.786 -1.354,-7.187 0.11,-2.179 0.634,-4.855 2.225,-6.464 1.967,-1.992 4.97,-2.081 6.843,-1.764 2.409,0.408 4.595,2.386 5.169,4.844 0.577,2.465 0.713,4.499 -0.817,6.214 -1.041,1.166 -5.808,0.868 -7.768,0.868 -0.725,0 -3.675,0.3 -3.553,-0.845 0.139,-1.295 -0.287,-2.157 0.841,-2.149 1.44,0.008 2.686,0.219 8.412,-0.088 1.07,-0.058 0.558,-4.513 -1.686,-5.672 -1.787,-0.926 -4.682,-0.65 -5.762,1.21 -1.123,1.936 -1.093,5.031 -0.773,7.165 0.314,2.107 1.33,3.963 3.607,4.195 1.097,0.11 2.314,0.1 3.301,-0.414 0.482,-0.252 1.241,-0.767 1.607,-1.168 0.353,-0.388 1.248,-0.546 2.022,0.306 0.833,0.916 0.601,1.258 -0.018,1.917 -1.503,1.607 -4.133,1.99 -6.273,2.007 z" />
        <path
           id="path321"
           d="m 1051.264,432.951 c 4.705,0.046 7.306,3.633 7.306,8.103 0,2.691 0,5.382 0,8.072 0,0.483 0,0.967 -0.289,1.386 -0.824,1.199 -2.537,0.622 -2.712,-0.741 -0.158,-1.231 -0.019,-2.558 -0.019,-3.796 0,-0.396 0.053,-0.833 0,-1.226 0,-1.229 -1.758,-1.898 -2.722,-2.136 -2.132,-0.522 -5.634,0.035 -5.634,2.887 0,1.722 0.223,2.403 1.958,2.65 1.199,0.171 4.715,0.218 6.362,-0.782 1.174,-0.712 2.077,1.462 0.029,2.499 -1.501,0.76 -1.501,0.76 -3.411,1.048 -1.705,0.257 -3.69,0.205 -5.231,-0.638 -3.414,-1.867 -3.462,-6.611 -0.704,-9.042 1.358,-1.195 3.144,-1.665 4.925,-1.665 1.47,0 3.334,0.11 4.444,1.22 0,-1.938 -0.763,-4.221 -2.81,-4.804 -1.139,-0.325 -3.7,-1.038 -5.632,1.998 -0.646,1.015 -2.409,0.625 -2.639,-0.616 -0.179,-0.962 0.34,-1.561 0.958,-2.221 1.495,-1.598 3.694,-2.165 5.821,-2.196 z" />
      </g>
      <g
         id="g425">
        <circle
           style="fill:#133c5c"
           id="circle415"
           r="42"
           cy="452.884"
           cx="836.62" />
        <g
           id="g423">
          <path
             style="fill:#ffffff"
             id="path417"
             d="m 808.328,460.599 c 0.551,1.582 1.02,2.725 1.406,3.428 0.691,1.301 1.547,1.951 2.566,1.951 1.031,-0.012 1.875,-0.668 2.531,-1.969 0.363,-0.715 0.803,-1.863 1.318,-3.445 0.281,-0.809 0.855,-2.607 1.723,-5.396 0.902,-2.895 1.693,-5.396 2.373,-7.506 0.082,-0.223 0.123,-0.439 0.123,-0.65 0,-0.281 -0.064,-0.539 -0.193,-0.773 -0.223,-0.387 -0.563,-0.639 -1.02,-0.756 -0.152,-0.035 -0.299,-0.053 -0.439,-0.053 -0.27,0 -0.533,0.064 -0.791,0.193 -0.434,0.223 -0.732,0.598 -0.896,1.125 -0.492,1.441 -1.131,3.434 -1.916,5.977 -0.902,3.012 -1.6,5.379 -2.092,7.102 -0.492,1.723 -1.008,1.746 -1.547,0.07 -0.539,-1.676 -1.307,-4.072 -2.303,-7.189 -0.656,-1.95 -5.493,-15.79 -7.861,-22.552 -0.803,1.244 -1.542,2.533 -2.213,3.863 2.656,7.579 6.715,19.201 7.385,21.202 0.961,2.835 1.577,4.628 1.846,5.378 z" />
          <path
             style="fill:#ffffff"
             id="path419"
             d="m 844.592,445.411 c -2.402,0 -4.301,0.645 -5.695,1.934 -0.527,0.48 -0.814,0.762 -0.861,0.844 -0.035,-0.094 -0.311,-0.393 -0.826,-0.896 -1.313,-1.254 -3.141,-1.881 -5.484,-1.881 -2.391,0 -4.283,0.645 -5.678,1.934 -1.793,1.652 -2.689,4.412 -2.689,8.279 v 8.35 c 0,0.574 0.164,1.037 0.492,1.389 0.328,0.352 0.727,0.527 1.195,0.527 0.468,0 0.867,-0.176 1.195,-0.527 0.328,-0.351 0.492,-0.814 0.492,-1.389 v -8.35 c 0.012,-2.977 0.568,-4.98 1.67,-6.012 0.75,-0.68 1.857,-1.02 3.322,-1.02 1.395,0 2.414,0.311 3.059,0.932 0.949,0.926 1.424,3.023 1.424,6.293 v 8.156 c 0,0.574 0.17,1.043 0.51,1.406 0.328,0.34 0.727,0.51 1.195,0.51 0.468,0 0.861,-0.176 1.178,-0.527 0.34,-0.352 0.51,-0.814 0.51,-1.389 v -8.051 c 0,-3.176 0.557,-5.279 1.67,-6.311 0.75,-0.68 1.857,-1.02 3.322,-1.02 1.383,0 2.396,0.311 3.041,0.932 0.961,0.914 1.441,2.93 1.441,6.047 v 8.402 c 0,0.574 0.17,1.043 0.51,1.406 0.328,0.34 0.727,0.51 1.195,0.51 0.468,0 0.861,-0.176 1.178,-0.527 0.34,-0.352 0.51,-0.814 0.51,-1.389 v -8.402 c -0.012,-3.984 -0.809,-6.744 -2.391,-8.279 -1.325,-1.254 -3.153,-1.881 -5.485,-1.881 z" />
          <path
             style="fill:#ffffff"
             id="path421"
             d="m 861.748,445.745 v -7.242 c 0,-0.586 -0.164,-1.055 -0.492,-1.406 -0.328,-0.34 -0.727,-0.51 -1.195,-0.51 -0.468,0 -0.867,0.176 -1.195,0.527 -0.328,0.351 -0.492,0.814 -0.492,1.389 l -0.018,7.242 h -1.635 c -0.539,0 -0.979,0.158 -1.318,0.475 -0.316,0.305 -0.475,0.674 -0.475,1.107 0,0.445 0.158,0.82 0.475,1.125 0.34,0.316 0.779,0.475 1.318,0.475 h 1.635 v 9.721 c 0,2.051 0.451,3.703 1.354,4.957 1.113,1.535 2.777,2.303 4.992,2.303 2.004,0 3.533,-0.586 4.588,-1.758 0.352,-0.398 0.527,-0.809 0.527,-1.23 v -0.088 c -0.035,-0.469 -0.24,-0.838 -0.615,-1.107 -0.293,-0.223 -0.633,-0.334 -1.02,-0.334 -0.082,0 -0.164,0.006 -0.246,0.018 -0.469,0.07 -0.879,0.299 -1.23,0.686 -0.375,0.422 -1.043,0.633 -2.004,0.633 -1.043,0 -1.787,-0.328 -2.232,-0.984 -0.48,-0.691 -0.721,-1.723 -0.721,-3.094 v -9.721 h 16.681 c -0.101,-1.073 -0.245,-2.134 -0.425,-3.182 h -16.257 z" />
        </g>
      </g>
    </g>
  </g>
</svg>
